<svg width="250" height="159" viewBox="0 0 250 159" fill="none" xmlns="http://www.w3.org/2000/svg">
<g filter="url(#filter0_d_97_275)">
<rect x="19.1667" y="9" width="65" height="84.1667" rx="2.5" fill="white"/>
<rect x="22.0834" y="13.5835" width="40" height="2.08333" rx="1.04167" fill="#D9D9D9"/>
<rect x="22.0834" y="17.3335" width="40" height="2.08333" rx="1.04167" fill="#FFEE8C"/>
<rect x="22.0834" y="21.0835" width="25.4167" height="2.08333" rx="1.04167" fill="#FEA0A0"/>
<rect x="49.1667" y="21.0835" width="25.4167" height="2.08333" rx="1.04167" fill="#ABFA84"/>
<rect x="58.3334" y="39.8335" width="21.6667" height="2.08333" rx="1.04167" fill="#D9D9D9"/>
<rect x="22.0834" y="24.8333" width="25.4167" height="2.08333" rx="1.04167" fill="#D9D9D9"/>
<rect x="22.0834" y="28.5833" width="44.1667" height="2.08333" rx="1.04167" fill="#D9D9D9"/>
<rect x="22.0834" y="32.3333" width="34.5833" height="2.08333" rx="1.04167" fill="#A4E2FF"/>
<rect x="22.0834" y="36.0835" width="30.4167" height="2.08333" rx="1.04167" fill="#8DDDF8"/>
<rect x="22.0834" y="39.8335" width="34.5833" height="2.08333" rx="1.04167" fill="#FFAFAF"/>
<rect x="22.0834" y="43.5835" width="27.0833" height="2.08333" rx="1.04167" fill="#D9D9D9"/>
<rect x="22.0834" y="47.3335" width="27.0833" height="2.08333" rx="1.04167" fill="#D9D9D9"/>
<rect x="22.0834" y="51.0835" width="30.4167" height="2.08333" rx="1.04167" fill="#D9D9D9"/>
<rect x="22.0834" y="54.8335" width="15" height="2.08333" rx="1.04167" fill="#FFEE8C"/>
<rect x="22.0834" y="58.5835" width="15" height="2.08333" rx="1.04167" fill="#FFEE8C"/>
<rect x="22.0834" y="62.3335" width="15" height="2.08333" rx="1.04167" fill="#D9D9D9"/>
<rect x="22.0834" y="66.0835" width="21.25" height="2.08333" rx="1.04167" fill="#D9D9D9"/>
</g>
<g filter="url(#filter1_d_97_275)">
<rect x="92.5001" y="24" width="65" height="84.1667" rx="2.5" fill="white"/>
<rect x="95.4167" y="28.5833" width="44.1667" height="28.3333" rx="2.91667" fill="#FFAFAF"/>
<rect x="95.4167" y="58.5835" width="27.0833" height="2.08333" rx="1.04167" fill="#D9D9D9"/>
<rect x="95.4167" y="62.3335" width="7.08333" height="2.08333" rx="1.04167" fill="#D9D9D9"/>
<rect x="127.917" y="58.5835" width="11.6667" height="2.08333" rx="1.04167" fill="#D9D9D9"/>
<rect x="95.4167" y="69.8333" width="21.25" height="2.08333" rx="1.04167" fill="#FFEE8C"/>
<rect x="140.833" y="28.5833" width="14.1667" height="28.3333" rx="2.91667" fill="#A4E2FF"/>
<rect x="95.4167" y="73.5833" width="39.1667" height="2.08333" rx="1.04167" fill="#D9D9D9"/>
<rect x="95.4167" y="77.3335" width="21.25" height="2.08333" rx="1.04167" fill="#D9D9D9"/>
<path d="M119.375 42.3892C119.653 42.5495 119.653 42.9505 119.375 43.1108L116.875 44.5542C116.597 44.7146 116.25 44.5141 116.25 44.1934V41.3066C116.25 40.9859 116.597 40.7854 116.875 40.9458L119.375 42.3892Z" fill="#A94E4E"/>
<rect x="97.5001" y="53.5835" width="40" height="0.416667" fill="#A94E4E"/>
</g>
<g filter="url(#filter2_d_97_275)">
<rect x="165.833" y="44.8335" width="65" height="84.1667" rx="2.5" fill="white"/>
<rect x="168.75" y="50.667" width="54.1667" height="2.08333" rx="1.04167" fill="#D9D9D9"/>
<rect x="168.75" y="65.6667" width="24.5833" height="2.08333" rx="1.04167" fill="#A4E2FF"/>
<rect x="219.583" y="61.0835" width="7.08333" height="2.08333" rx="1.04167" fill="#FFEE8C"/>
<rect x="168.75" y="70.6667" width="24.5833" height="2.08333" rx="1.04167" fill="#A4E2FF"/>
<rect x="168.75" y="80.6667" width="24.5833" height="2.08333" rx="1.04167" fill="#A4E2FF"/>
<rect x="168.75" y="90.6667" width="57.9167" height="5" rx="2.5" fill="#FFAFAF"/>
<rect x="168.75" y="54.8335" width="39.1667" height="2.08333" rx="1.04167" fill="#D9D9D9"/>
<rect x="168.75" y="75.6667" width="24.5833" height="2.08333" rx="1.04167" fill="#A4E2FF"/>
</g>
<defs>
<filter id="filter0_d_97_275" x="0.140471" y="0.67603" width="103.052" height="122.219" filterUnits="userSpaceOnUse" color-interpolation-filters="sRGB">
<feFlood flood-opacity="0" result="BackgroundImageFix"/>
<feColorMatrix in="SourceAlpha" type="matrix" values="0 0 0 0 0 0 0 0 0 0 0 0 0 0 0 0 0 0 127 0" result="hardAlpha"/>
<feOffset dy="10.7022"/>
<feGaussianBlur stdDeviation="9.51311"/>
<feComposite in2="hardAlpha" operator="out"/>
<feColorMatrix type="matrix" values="0 0 0 0 0 0 0 0 0 0 0 0 0 0 0 0 0 0 0.17 0"/>
<feBlend mode="normal" in2="BackgroundImageFix" result="effect1_dropShadow_97_275"/>
<feBlend mode="normal" in="SourceGraphic" in2="effect1_dropShadow_97_275" result="shape"/>
</filter>
<filter id="filter1_d_97_275" x="73.4738" y="15.676" width="103.052" height="122.219" filterUnits="userSpaceOnUse" color-interpolation-filters="sRGB">
<feFlood flood-opacity="0" result="BackgroundImageFix"/>
<feColorMatrix in="SourceAlpha" type="matrix" values="0 0 0 0 0 0 0 0 0 0 0 0 0 0 0 0 0 0 127 0" result="hardAlpha"/>
<feOffset dy="10.7022"/>
<feGaussianBlur stdDeviation="9.51311"/>
<feComposite in2="hardAlpha" operator="out"/>
<feColorMatrix type="matrix" values="0 0 0 0 0 0 0 0 0 0 0 0 0 0 0 0 0 0 0.17 0"/>
<feBlend mode="normal" in2="BackgroundImageFix" result="effect1_dropShadow_97_275"/>
<feBlend mode="normal" in="SourceGraphic" in2="effect1_dropShadow_97_275" result="shape"/>
</filter>
<filter id="filter2_d_97_275" x="146.807" y="36.5095" width="103.052" height="122.219" filterUnits="userSpaceOnUse" color-interpolation-filters="sRGB">
<feFlood flood-opacity="0" result="BackgroundImageFix"/>
<feColorMatrix in="SourceAlpha" type="matrix" values="0 0 0 0 0 0 0 0 0 0 0 0 0 0 0 0 0 0 127 0" result="hardAlpha"/>
<feOffset dy="10.7022"/>
<feGaussianBlur stdDeviation="9.51311"/>
<feComposite in2="hardAlpha" operator="out"/>
<feColorMatrix type="matrix" values="0 0 0 0 0 0 0 0 0 0 0 0 0 0 0 0 0 0 0.17 0"/>
<feBlend mode="normal" in2="BackgroundImageFix" result="effect1_dropShadow_97_275"/>
<feBlend mode="normal" in="SourceGraphic" in2="effect1_dropShadow_97_275" result="shape"/>
</filter>
</defs>
</svg>
