<svg width="204" height="204" viewBox="0 0 204 204" fill="none" xmlns="http://www.w3.org/2000/svg">
<path d="M82.9768 157.408C83.0098 163.058 87.3375 167.613 92.6419 167.582L94.5297 167.571L94.4093 147.109L92.5215 147.12C87.2167 147.151 82.9433 151.757 82.9768 157.408Z" fill="#E0E0E0"/>
<path d="M101.747 164.532C97.7747 168.551 91.2969 168.589 87.2781 164.617C83.2593 160.645 83.2209 154.167 87.1928 150.149C91.1647 146.13 97.6425 146.092 101.662 150.063C105.681 154.035 105.718 160.513 101.747 164.532Z" fill="#E6E6E6"/>
<path d="M98.1049 164.691C102.158 162.682 103.816 157.767 101.807 153.713C99.7975 149.66 94.8828 148.002 90.8293 150.012C86.7758 152.021 85.1184 156.935 87.1276 160.989C89.1367 165.042 94.0514 166.7 98.1049 164.691Z" fill="#EBEBEB"/>
<path d="M95.7554 160.574C95.3266 160.895 94.8223 161.065 94.243 161.086L94.2018 161.353C94.181 161.488 94.1124 161.6 93.9969 161.688C93.8811 161.776 93.7558 161.809 93.6204 161.789C93.4849 161.768 93.3788 161.701 93.3013 161.586C93.2238 161.472 93.196 161.344 93.2181 161.202L93.2544 160.967C92.7583 160.825 92.3458 160.601 92.0173 160.295C91.6885 159.989 91.4722 159.653 91.3682 159.286C91.3217 159.112 91.307 158.971 91.3233 158.864C91.3454 158.721 91.4155 158.606 91.5351 158.519C91.6538 158.431 91.7884 158.399 91.9386 158.422C92.0598 158.441 92.1609 158.493 92.2425 158.579C92.3241 158.664 92.378 158.767 92.4033 158.888C92.4453 159.135 92.562 159.352 92.7521 159.538C92.9423 159.724 93.1683 159.867 93.4306 159.965L93.8252 157.684C93.263 157.4 92.8354 157.083 92.5432 156.732C92.2507 156.38 92.1426 155.959 92.2185 155.467C92.2952 154.968 92.5306 154.575 92.9247 154.29C93.3189 154.004 93.8211 153.867 94.4319 153.881L94.4666 153.656C94.4874 153.521 94.5543 153.409 94.6665 153.321C94.7783 153.232 94.8982 153.197 95.0267 153.217C95.1622 153.238 95.2715 153.308 95.3556 153.427C95.4396 153.546 95.4711 153.673 95.4502 153.808L95.4172 154.022C95.9859 154.168 96.4115 154.401 96.6938 154.722C96.9766 155.042 97.0863 155.41 97.0227 155.823C96.9986 155.98 96.9284 156.102 96.813 156.19C96.6971 156.278 96.5682 156.311 96.4254 156.289C96.2973 156.27 96.1948 156.212 96.1181 156.116C96.0418 156.021 96.0063 155.907 96.0116 155.777C96.0137 155.624 95.9464 155.477 95.8117 155.336C95.6763 155.195 95.4882 155.08 95.2462 154.991L94.8913 157.016C96.1169 157.635 96.6583 158.408 96.5159 159.334C96.4372 159.84 96.1838 160.253 95.7554 160.574ZM93.3837 156.067C93.5049 156.228 93.7126 156.397 94.0067 156.574L94.2817 154.854C93.9749 154.858 93.7338 154.921 93.5583 155.044C93.3825 155.166 93.2781 155.334 93.245 155.548C93.216 155.733 93.2621 155.907 93.3837 156.067ZM95.1442 159.812C95.3474 159.654 95.4666 159.461 95.5016 159.233C95.5302 159.047 95.4857 158.863 95.3674 158.681C95.2495 158.499 95.03 158.314 94.7089 158.126L94.3956 160.091C94.6914 160.064 94.9411 159.971 95.1442 159.812Z" fill="#FAFAFA"/>
<path d="M88.9006 151.141C92.3262 148.068 97.5951 148.354 100.668 151.779C103.741 155.205 103.456 160.473 100.03 163.547C102.805 160.375 102.776 155.631 99.9619 152.494C96.8884 149.068 91.6199 148.783 88.1943 151.856C88.4151 151.604 88.6509 151.365 88.9006 151.141Z" fill="#E0E0E0"/>
<path d="M140.392 129.942C140.839 134.071 144.343 137.079 148.22 136.659L149.599 136.51L147.982 121.558L146.603 121.707C142.726 122.127 139.946 125.813 140.392 129.942Z" fill="#E0E0E0"/>
<path d="M154.649 133.749C152.045 136.985 147.311 137.497 144.076 134.893C140.84 132.289 140.328 127.556 142.932 124.32C145.536 121.085 150.27 120.573 153.505 123.176C156.741 125.78 157.253 130.514 154.649 133.749Z" fill="#E6E6E6"/>
<path d="M149.67 134.985C152.958 134.496 155.228 131.434 154.739 128.145C154.251 124.856 151.188 122.586 147.9 123.075C144.611 123.564 142.341 126.626 142.83 129.915C143.319 133.204 146.381 135.473 149.67 134.985Z" fill="#EBEBEB"/>
<path d="M149.972 131.303C149.683 131.57 149.327 131.732 148.904 131.791L148.894 131.989C148.889 132.09 148.847 132.176 148.769 132.25C148.691 132.323 148.602 132.356 148.501 132.352C148.401 132.347 148.318 132.305 148.253 132.227C148.188 132.15 148.158 132.058 148.163 131.952L148.172 131.778C147.799 131.711 147.481 131.578 147.217 131.379C146.954 131.18 146.771 130.95 146.667 130.691C146.62 130.566 146.599 130.464 146.603 130.385C146.608 130.279 146.651 130.19 146.732 130.116C146.812 130.044 146.908 130.01 147.02 130.016C147.109 130.02 147.187 130.051 147.253 130.107C147.319 130.164 147.366 130.235 147.394 130.321C147.443 130.499 147.545 130.649 147.698 130.771C147.851 130.893 148.026 130.98 148.226 131.032L148.343 129.334C147.911 129.169 147.575 128.969 147.335 128.734C147.095 128.498 146.984 128.198 147.003 127.833C147.022 127.463 147.164 127.158 147.431 126.92C147.698 126.682 148.055 126.544 148.503 126.509L148.511 126.342C148.516 126.241 148.557 126.155 148.632 126.081C148.707 126.008 148.793 125.974 148.888 125.979C148.989 125.984 149.074 126.027 149.144 126.107C149.215 126.188 149.247 126.278 149.242 126.379L149.234 126.538C149.661 126.602 149.989 126.741 150.22 126.954C150.451 127.167 150.558 127.428 150.543 127.735C150.537 127.851 150.495 127.946 150.417 128.019C150.339 128.092 150.246 128.125 150.141 128.12C150.045 128.115 149.966 128.081 149.903 128.017C149.84 127.952 149.806 127.872 149.8 127.776C149.79 127.664 149.73 127.562 149.621 127.469C149.511 127.376 149.366 127.306 149.181 127.259L149.073 128.766C150.015 129.128 150.469 129.652 150.434 130.34C150.416 130.715 150.261 131.037 149.972 131.303ZM147.901 128.185C148.002 128.294 148.166 128.402 148.394 128.509L148.467 127.231C148.243 127.256 148.071 127.321 147.952 127.423C147.833 127.526 147.769 127.657 147.761 127.816C147.754 127.954 147.801 128.076 147.901 128.185ZM149.468 130.792C149.605 130.661 149.678 130.511 149.687 130.342C149.694 130.204 149.647 130.073 149.547 129.948C149.448 129.824 149.273 129.705 149.024 129.591L148.942 131.052C149.156 131.01 149.332 130.923 149.468 130.792Z" fill="#F5F5F5"/>
<path d="M144.255 124.918C146.531 122.415 150.404 122.23 152.907 124.505C155.41 126.78 155.595 130.654 153.32 133.157C155.112 130.631 154.736 127.164 152.445 125.081C149.941 122.806 146.068 122.991 143.792 125.494C143.935 125.293 144.089 125.101 144.255 124.918Z" fill="#E0E0E0"/>
<path d="M31.4744 152.505C31.4682 152.311 30.8146 133.022 27.6771 129.971C24.6257 127.004 21.123 129.861 20.9757 129.983L20.6611 129.606C20.7007 129.573 24.6534 126.346 28.0194 129.618C31.2977 132.806 31.9391 151.687 31.9648 152.489L31.4744 152.505Z" fill="#E0E0E0"/>
<path d="M31.7433 156.296C31.7209 156.065 29.5989 133.139 37.9715 123.53L38.3415 123.853C30.1085 133.302 32.2101 156.02 32.2321 156.248L31.7433 156.296Z" fill="#E0E0E0"/>
<path d="M31.4341 153.87L30.9441 153.838C30.9612 153.578 32.5826 127.774 26.4414 122.125L26.7739 121.764C33.0869 127.571 31.5047 152.799 31.4341 153.87Z" fill="#E0E0E0"/>
<path d="M32.2334 153.856L31.7422 153.852C31.7483 153.141 31.945 136.423 36.6937 133.701C37.7492 133.096 38.783 132.995 39.7663 133.402C42.6378 134.589 44.0609 139.7 44.1201 139.917L43.6464 140.047C43.6325 139.996 42.2274 134.951 39.5782 133.856C38.7431 133.511 37.8548 133.602 36.9381 134.127C32.4317 136.71 32.235 153.685 32.2334 153.856Z" fill="#E0E0E0"/>
<path d="M30.3837 153.869L29.8937 153.841C29.9011 153.709 30.6102 140.629 27.0802 136.021C26.225 134.904 25.2964 134.372 24.3156 134.44C22.0026 134.602 20.063 137.987 20.0438 138.021L19.6162 137.779C19.7003 137.63 21.7044 134.131 24.2805 133.951C25.4331 133.869 26.5077 134.466 27.4698 135.722C31.1108 140.475 30.4152 153.324 30.3837 153.869Z" fill="#E0E0E0"/>
<path d="M31.1577 155.647C31.0614 154.378 28.85 124.513 32.7411 119.25L33.1357 119.542C29.3523 124.659 31.624 155.301 31.6473 155.61L31.1577 155.647Z" fill="#E0E0E0"/>
<path d="M40.8247 136.429C40.8247 136.429 38.4906 137.289 39.1846 139.321C39.8786 141.353 47.2597 144.697 47.2597 144.697C47.2597 144.697 50.3511 141.863 47.5123 137.255C44.673 132.646 40.888 134.975 40.8247 136.429Z" fill="#EBEBEB"/>
<path d="M30.6771 132.561C30.6771 132.561 33.1627 132.457 33.3043 134.6C33.4454 136.742 27.9191 142.669 27.9191 142.669C27.9191 142.669 23.9753 141.243 24.8223 135.897C25.6694 130.551 30.0594 131.244 30.6771 132.561Z" fill="#EBEBEB"/>
<path d="M28.5723 122.307C28.5723 122.307 30.2296 122.129 30.0961 121.12C29.9627 120.11 23.6538 117.512 19.9316 121.713C19.9316 121.713 22.3152 125.807 25.7603 125.861C29.2055 125.914 28.5723 122.307 28.5723 122.307Z" fill="#EBEBEB"/>
<path d="M31.6607 119.855C31.6607 119.855 30.1601 120.581 29.7395 119.653C29.3188 118.726 33.2989 113.184 38.68 114.781C38.68 114.781 38.8228 119.517 35.9268 121.384C33.0312 123.252 31.6607 119.855 31.6607 119.855Z" fill="#EBEBEB"/>
<path d="M23.814 135.612C23.814 135.612 24.9576 134.689 23.7234 134.238C22.4892 133.787 16.4325 133.915 16.3696 139.915C16.3696 139.915 23.4235 141.087 24.2967 138.802C25.1698 136.516 23.814 135.612 23.814 135.612Z" fill="#EBEBEB"/>
<path d="M38.1986 122.156C38.1986 122.156 37.055 121.232 38.2892 120.782C39.5234 120.331 45.5797 120.459 45.643 126.459C45.643 126.459 38.5891 127.631 37.716 125.346C36.8428 123.06 38.1986 122.156 38.1986 122.156Z" fill="#EBEBEB"/>
<path d="M34.4692 126.989C34.4692 126.989 34.3685 125.866 35.275 126.306C36.1812 126.747 39.3387 130.153 36.0657 133.385C36.0657 133.385 31.6602 130.122 32.4541 128.423C33.2481 126.724 34.4692 126.989 34.4692 126.989Z" fill="#EBEBEB"/>
<path d="M22.7917 128.589C22.7917 128.589 23.4755 127.693 22.4743 127.582C21.4731 127.471 16.9855 128.669 18.0308 133.148C18.0308 133.148 23.4976 132.738 23.7322 130.877C23.966 129.016 22.7917 128.589 22.7917 128.589Z" fill="#EBEBEB"/>
<path d="M36.8288 162.51H25.8018L22.8687 148.981H39.4832L36.8288 162.51Z" fill="#F0F0F0"/>
<path d="M40.4403 148.785H21.8682V152.675H40.4403V148.785Z" fill="#E6E6E6"/>
<path d="M175.982 34.877H134.949V119.772H175.982V34.877Z" fill="#EBEBEB"/>
<path d="M173.516 37.3428H137.415V117.305H173.516V37.3428Z" fill="#FAFAFA"/>
<path d="M151.584 117.305H162.435L172.622 37.3428H161.771L151.584 117.305Z" fill="#F0F0F0"/>
<path d="M156.729 37.3428L146.543 117.305H149.173L159.36 37.3428H156.729Z" fill="#F0F0F0"/>
<path d="M176.502 36.9347H134.429L133.542 34.8633H177.39L176.502 36.9347Z" fill="#E0E0E0"/>
<path d="M176.502 38.1353H134.429L133.542 36.0635H177.39L176.502 38.1353Z" fill="#EBEBEB"/>
<path d="M176.502 39.3322H134.429L133.542 37.2607H177.39L176.502 39.3322Z" fill="#E6E6E6"/>
<path d="M176.502 40.5324H134.429L133.542 38.4609H177.39L176.502 40.5324Z" fill="#E0E0E0"/>
<path d="M132.499 60.0746C132.236 60.0746 132.022 59.8612 132.022 59.5977C132.022 59.5964 132.022 59.5956 132.022 59.5944V43.4821C132.024 43.2201 132.237 43.0084 132.499 43.0088C132.762 43.0088 132.976 43.2222 132.976 43.4857V59.5981C132.976 59.8608 132.762 60.0746 132.499 60.0746Z" fill="#E0E0E0"/>
<path d="M132.666 34.4756H132.321V44.0444H132.666V34.4756Z" fill="#E0E0E0"/>
<path d="M178.918 32.2695H132.012V35.0317H178.918V32.2695Z" fill="#EBEBEB"/>
<path d="M187.383 137.542H113.639C112.32 137.542 111.247 136.469 111.247 135.15V27.7345C111.247 26.4158 112.32 25.3428 113.639 25.3428H187.383C188.702 25.3428 189.775 26.4154 189.775 27.7345V135.15C189.775 136.469 188.702 137.542 187.383 137.542ZM113.639 25.4448C112.376 25.4448 111.349 26.4721 111.349 27.7345V135.15C111.349 136.413 112.376 137.44 113.639 137.44H187.383C188.646 137.44 189.673 136.413 189.673 135.15V27.7345C189.673 26.4721 188.645 25.4448 187.383 25.4448H113.639Z" fill="#E0E0E0"/>
<path d="M90.2962 137.542H16.5519C15.2332 137.542 14.1602 136.469 14.1602 135.15V27.7345C14.1602 26.4158 15.2328 25.3428 16.5519 25.3428H90.2966C91.6153 25.3428 92.6883 26.4154 92.6883 27.7345V135.15C92.6883 136.469 91.6153 137.542 90.2962 137.542ZM16.5519 25.4448C15.2895 25.4448 14.2622 26.4721 14.2622 27.7345V135.15C14.2622 136.413 15.2895 137.44 16.5519 137.44H90.2966C91.5594 137.44 92.5863 136.413 92.5863 135.15V27.7345C92.5863 26.4721 91.559 25.4448 90.2966 25.4448H16.5519Z" fill="#E0E0E0"/>
<path d="M204 162.458H0V162.56H204V162.458Z" fill="#E0E0E0"/>
<path d="M27.6345 168.277H21.082V168.379H27.6345V168.277Z" fill="#E0E0E0"/>
<path d="M91.3437 167.172H69.5034V167.274H91.3437V167.172Z" fill="#E0E0E0"/>
<path d="M42.8325 172.068H28.0425V172.17H42.8325V172.068Z" fill="#E0E0E0"/>
<path d="M171.989 167.119H154.368V167.221H171.989V167.119Z" fill="#E0E0E0"/>
<path d="M178.207 167.119H175.625V167.221H178.207V167.119Z" fill="#E0E0E0"/>
<path d="M151.002 169.661H129.015V169.763H151.002V169.661Z" fill="#E0E0E0"/>
<path d="M75.7513 25.9128H64.8202C64.4791 25.9128 64.3306 25.4812 64.5998 25.2715L69.7639 21.2482L75.531 16.7553C75.6607 16.6545 75.8419 16.6545 75.9716 16.7553L81.7387 21.2482L86.9028 25.2715C87.172 25.4812 87.0235 25.9128 86.6824 25.9128H75.7513Z" fill="#EBEBEB"/>
<path d="M83.4798 24.7859H68.0227C67.8804 24.7859 67.7539 24.6953 67.7078 24.5611C67.6621 24.4268 67.7061 24.2779 67.8179 24.1906L75.5463 18.1697C75.667 18.0767 75.8347 18.0759 75.9543 18.1693L83.6838 24.1906C83.7956 24.2775 83.8401 24.4264 83.794 24.5611C83.7487 24.6957 83.6222 24.7859 83.4798 24.7859ZM68.5487 24.2726H82.9539L75.7515 18.6618L68.5487 24.2726Z" fill="#E0E0E0"/>
<path d="M69.0627 25.9121H66.9741V34.8355H69.0627V25.9121Z" fill="#EBEBEB"/>
<path d="M73.799 25.9121H71.7104V34.8355H73.799V25.9121Z" fill="#EBEBEB"/>
<path d="M80.2258 25.9121H78.1372V34.8355H80.2258V25.9121Z" fill="#EBEBEB"/>
<path d="M84.8571 25.9121H82.7686V34.8355H84.8571V25.9121Z" fill="#EBEBEB"/>
<path d="M86.8919 37.133H64.611C64.2908 37.133 64.0562 36.8306 64.1357 36.5202L64.4735 35.2044C64.5294 34.9873 64.7249 34.8359 64.9489 34.8359H86.4725C86.6859 34.8359 86.8752 34.9742 86.9401 35.1774L87.3595 36.4932C87.4603 36.8098 87.224 37.133 86.8919 37.133Z" fill="#EBEBEB"/>
<path d="M75.7514 23.6141C74.9142 23.6141 74.2324 22.9328 74.2324 22.0952C74.2324 21.2579 74.9138 20.5762 75.7514 20.5762C76.589 20.5762 77.2704 21.2575 77.2704 22.0952C77.27 22.9324 76.5886 23.6141 75.7514 23.6141ZM75.7514 21.0894C75.1969 21.0894 74.7461 21.5403 74.7461 22.0947C74.7461 22.6492 75.1969 23.1005 75.7514 23.1005C76.3059 23.1005 76.7567 22.6496 76.7567 22.0947C76.7567 21.5407 76.3059 21.0894 75.7514 21.0894Z" fill="#E0E0E0"/>
<path d="M86.2187 27.2087H65.2838C65.1443 27.2087 65.0312 27.0957 65.0312 26.9562V26.1647C65.0312 26.0251 65.1443 25.9121 65.2838 25.9121H86.2187C86.3582 25.9121 86.4712 26.0251 86.4712 26.1647V26.9558C86.4712 27.0957 86.3582 27.2087 86.2187 27.2087Z" fill="#EBEBEB"/>
<path d="M85.9978 26.2388H65.5052C65.3632 26.2388 65.2485 26.1242 65.2485 25.9822C65.2485 25.8402 65.3632 25.7256 65.5052 25.7256H85.9978C86.1398 25.7256 86.2544 25.8402 86.2544 25.9822C86.2544 26.1242 86.1398 26.2388 85.9978 26.2388Z" fill="#E0E0E0"/>
<path d="M85.9978 36.2818H65.5052C65.3632 36.2818 65.2485 36.1668 65.2485 36.0252C65.2485 35.8836 65.3632 35.7686 65.5052 35.7686H85.9978C86.1398 35.7686 86.2544 35.8832 86.2544 36.0252C86.2544 36.1672 86.1398 36.2818 85.9978 36.2818Z" fill="#E0E0E0"/>
<path d="M52.3306 34.8623H22.5151V82.1393H52.3306V34.8623Z" fill="#E6E6E6"/>
<path d="M51.1351 34.8213H22.5151V80.7535H51.1351V34.8213Z" fill="#F0F0F0"/>
<path d="M46.7716 38.9014H26.8652V76.674H46.7716V38.9014Z" fill="white"/>
<path d="M40.925 46.8535H32.9829V68.9259H40.925V46.8535Z" fill="#F0F0F0"/>
<path d="M104.176 186.175C151.242 186.175 189.397 184.719 189.397 182.923C189.397 181.127 151.242 179.671 104.176 179.671C57.1093 179.671 18.9546 181.127 18.9546 182.923C18.9546 184.719 57.1093 186.175 104.176 186.175Z" fill="#F5F5F5"/>
<path d="M120.537 149.111H79.8483C75.2726 149.108 71.5638 145.399 71.3076 140.878V43.6246C71.5638 38.9938 75.2726 35.2851 79.8483 35.2822H120.537C125.113 35.2855 128.821 38.9938 128.825 43.5699V140.824C128.821 145.399 125.113 149.108 120.537 149.111Z" fill="#263238"/>
<path d="M120.537 37.1867H109.962C109.275 37.183 108.692 37.6893 108.598 38.3699L108.553 38.7024C108.331 40.3768 106.907 41.6298 105.218 41.6376H95.1667C93.4775 41.6298 92.0536 40.3764 91.8313 38.7024L91.7917 38.3699C91.7011 37.6828 91.1156 37.1696 90.4229 37.17H79.8479C76.3224 37.1573 73.4545 40.0052 73.4419 43.5307C73.4419 43.5437 73.4419 43.5568 73.4419 43.5703V140.824C73.4419 144.35 76.2999 147.207 79.8251 147.207H120.514C124.04 147.207 126.899 144.35 126.903 140.824V43.5699C126.9 40.0525 124.054 37.1989 120.537 37.1867Z" fill="#407BFF"/>
<path opacity="0.7" d="M120.537 37.1867H109.962C109.275 37.183 108.692 37.6893 108.598 38.3699L108.553 38.7024C108.331 40.3768 106.907 41.6298 105.218 41.6376H95.1667C93.4775 41.6298 92.0536 40.3764 91.8313 38.7024L91.7917 38.3699C91.7011 37.6828 91.1156 37.1696 90.4229 37.17H79.8479C76.3224 37.1573 73.4545 40.0052 73.4419 43.5307C73.4419 43.5437 73.4419 43.5568 73.4419 43.5703V140.824C73.4419 144.35 76.2999 147.207 79.8251 147.207H120.514C124.04 147.207 126.899 144.35 126.903 140.824V43.5699C126.9 40.0525 124.054 37.1989 120.537 37.1867Z" fill="white"/>
<g opacity="0.7">
<path d="M97.7305 38.2619C97.7338 38.7098 97.3731 39.0758 96.9247 39.0787C96.4768 39.0819 96.1108 38.7209 96.1079 38.2729C96.1047 37.8249 96.4653 37.4589 96.9137 37.4561C96.9174 37.4561 96.9211 37.4561 96.9247 37.4561C97.3699 37.4565 97.7305 37.8171 97.7305 38.2619Z" fill="black"/>
<path d="M103.46 37.4561H100.688C100.243 37.4561 99.8823 37.8167 99.8823 38.2619C99.8823 38.707 100.243 39.0677 100.688 39.0677H103.46C103.905 39.0677 104.266 38.707 104.266 38.2619C104.266 37.8167 103.905 37.4561 103.46 37.4561Z" fill="black"/>
</g>
<path d="M78.7495 40.7812H77.8931V41.6376H78.7495V40.7812Z" fill="#407BFF"/>
<path d="M79.6001 40.7812V41.6376H80.4565V40.7812V39.9248H79.6001V40.7812Z" fill="#407BFF"/>
<path d="M81.313 39.0742V39.9249V40.7813V41.6377H82.1694V40.7813V39.9249V39.0742H81.313Z" fill="#407BFF"/>
<path d="M118.108 39.1299V39.7553H117.691V41.0116H118.108V41.637H121.894V39.1299H118.108ZM119.799 41.0116H118.514V39.7553H119.771L119.799 41.0116Z" fill="#407BFF"/>
<path d="M116.159 107.389H84.2257C83.8504 107.389 83.5464 107.085 83.5464 106.71V86.7311C83.5464 86.3557 83.8504 86.0518 84.2257 86.0518H116.159C116.535 86.0518 116.839 86.3557 116.839 86.7311V106.71C116.839 107.085 116.534 107.389 116.159 107.389Z" fill="#407BFF"/>
<path opacity="0.6" d="M93.8554 96.0072H88.9182C88.4543 96.0072 88.0781 95.631 88.0781 95.1671V91.134C88.0781 90.6701 88.4543 90.2939 88.9182 90.2939H93.8554C94.3193 90.2939 94.6955 90.6701 94.6955 91.134V95.1671C94.6955 95.6314 94.3193 96.0072 93.8554 96.0072Z" fill="white"/>
<g opacity="0.3">
<path d="M88.0779 100.358C89.512 100.358 90.9465 100.358 92.3807 100.358C92.8682 100.358 92.869 99.6006 92.3807 99.6006C90.9465 99.6006 89.512 99.6006 88.0779 99.6006C87.5903 99.6002 87.5895 100.358 88.0779 100.358Z" fill="black"/>
</g>
<g opacity="0.3">
<path d="M94.7029 100.358C96.137 100.358 97.5715 100.358 99.0057 100.358C99.4932 100.358 99.494 99.6006 99.0057 99.6006C97.5715 99.6006 96.137 99.6006 94.7029 99.6006C94.2153 99.6002 94.2145 100.358 94.7029 100.358Z" fill="black"/>
</g>
<g opacity="0.3">
<path d="M101.327 100.358C102.761 100.358 104.196 100.358 105.63 100.358C106.118 100.358 106.118 99.6006 105.63 99.6006C104.196 99.6006 102.761 99.6006 101.327 99.6006C100.839 99.6002 100.838 100.358 101.327 100.358Z" fill="black"/>
</g>
<g opacity="0.3">
<path d="M107.952 100.358C109.386 100.358 110.821 100.358 112.255 100.358C112.742 100.358 112.743 99.6006 112.255 99.6006C110.821 99.6006 109.386 99.6006 107.952 99.6006C107.464 99.6002 107.464 100.358 107.952 100.358Z" fill="black"/>
</g>
<path d="M109.725 68.3347H90.04C89.4724 68.3347 89.0122 67.8745 89.0122 67.307V49.3354C89.0122 48.7678 89.4724 48.3076 90.04 48.3076H109.725C110.293 48.3076 110.753 48.7678 110.753 49.3354V67.307C110.753 67.8745 110.293 68.3347 109.725 68.3347Z" fill="#407BFF"/>
<path d="M99.8821 56.9077H92.2995C92.0628 56.9077 91.96 56.6082 92.1465 56.463L95.7287 53.6723L99.7291 50.5556C99.8189 50.4854 99.945 50.4854 100.035 50.5556L104.035 53.6723L107.617 56.463C107.804 56.6087 107.701 56.9077 107.464 56.9077H99.8821Z" fill="#407BFF"/>
<g opacity="0.7">
<path d="M99.8821 56.9077H92.2995C92.0628 56.9077 91.96 56.6082 92.1465 56.463L95.7287 53.6723L99.7291 50.5556C99.8189 50.4854 99.945 50.4854 100.035 50.5556L104.035 53.6723L107.617 56.463C107.804 56.6087 107.701 56.9077 107.464 56.9077H99.8821Z" fill="white"/>
</g>
<path d="M105.243 56.1266H94.5212C94.4224 56.1266 94.3347 56.0637 94.3029 55.9707C94.2711 55.8773 94.3021 55.7745 94.3796 55.7137L99.7407 51.537C99.8244 51.4725 99.9406 51.4717 100.024 51.5366L105.385 55.7133C105.463 55.7737 105.494 55.8769 105.462 55.9703C105.43 56.0637 105.342 56.1266 105.243 56.1266ZM94.8859 55.7704H104.878L99.8823 51.8781L94.8859 55.7704Z" fill="#407BFF"/>
<path d="M95.2428 56.9072H93.7939V63.097H95.2428V56.9072Z" fill="#407BFF"/>
<g opacity="0.7">
<path d="M95.2428 56.9072H93.7939V63.097H95.2428V56.9072Z" fill="white"/>
</g>
<path d="M98.5284 56.9072H97.0796V63.097H98.5284V56.9072Z" fill="#407BFF"/>
<g opacity="0.7">
<path d="M98.5284 56.9072H97.0796V63.097H98.5284V56.9072Z" fill="white"/>
</g>
<path d="M102.986 56.9072H101.537V63.097H102.986V56.9072Z" fill="#407BFF"/>
<g opacity="0.7">
<path d="M102.986 56.9072H101.537V63.097H102.986V56.9072Z" fill="white"/>
</g>
<path d="M106.216 56.9072H104.768V63.097H106.216V56.9072Z" fill="#407BFF"/>
<g opacity="0.7">
<path d="M106.216 56.9072H104.768V63.097H106.216V56.9072Z" fill="white"/>
</g>
<path d="M107.61 64.6913H92.1544C91.9321 64.6913 91.7697 64.4816 91.8248 64.2662L92.0594 63.3535C92.0981 63.2029 92.2336 63.0977 92.389 63.0977H107.319C107.467 63.0977 107.598 63.1935 107.643 63.3347L107.934 64.2474C108.004 64.4673 107.84 64.6913 107.61 64.6913Z" fill="#407BFF"/>
<g opacity="0.7">
<path d="M107.61 64.6913H92.1544C91.9321 64.6913 91.7697 64.4816 91.8248 64.2662L92.0594 63.3535C92.0981 63.2029 92.2336 63.0977 92.389 63.0977H107.319C107.467 63.0977 107.598 63.1935 107.643 63.3347L107.934 64.2474C108.004 64.4673 107.84 64.6913 107.61 64.6913Z" fill="white"/>
</g>
<path d="M99.8826 55.3134C99.3016 55.3134 98.8291 54.8409 98.8291 54.2595C98.8291 53.6785 99.302 53.2061 99.8826 53.2061C100.464 53.2061 100.936 53.6789 100.936 54.2595C100.936 54.8405 100.464 55.3134 99.8826 55.3134ZM99.8826 53.5622C99.4978 53.5622 99.1853 53.8752 99.1853 54.2595C99.1853 54.6443 99.4978 54.9572 99.8826 54.9572C100.267 54.9572 100.58 54.6443 100.58 54.2595C100.58 53.8752 100.267 53.5622 99.8826 53.5622Z" fill="#407BFF"/>
<path d="M107.066 57.8065H92.6988C92.5593 57.8065 92.4463 57.6934 92.4463 57.5539V57.1598C92.4463 57.0202 92.5593 56.9072 92.6988 56.9072H107.066C107.206 56.9072 107.319 57.0202 107.319 57.1598V57.5539C107.319 57.6934 107.206 57.8065 107.066 57.8065Z" fill="#407BFF"/>
<g opacity="0.7">
<path d="M107.066 57.8065H92.6988C92.5593 57.8065 92.4463 57.6934 92.4463 57.5539V57.1598C92.4463 57.0202 92.5593 56.9072 92.6988 56.9072H107.066C107.206 56.9072 107.319 57.0202 107.319 57.1598V57.5539C107.319 57.6934 107.206 57.8065 107.066 57.8065Z" fill="white"/>
</g>
<path d="M106.99 57.1341H92.7745C92.6762 57.1341 92.5962 57.0545 92.5962 56.9562C92.5962 56.8579 92.6757 56.7783 92.7745 56.7783H106.99C107.088 56.7783 107.167 56.8579 107.167 56.9562C107.168 57.0545 107.088 57.1341 106.99 57.1341Z" fill="#407BFF"/>
<path d="M106.99 64.1003H92.7745C92.6762 64.1003 92.5962 64.0208 92.5962 63.9224C92.5962 63.8241 92.6757 63.7441 92.7745 63.7441H106.99C107.088 63.7441 107.167 63.8237 107.167 63.9224C107.168 64.0208 107.088 64.1003 106.99 64.1003Z" fill="#407BFF"/>
<path d="M112.921 71.8535H87.4634V73.031H112.921V71.8535Z" fill="#407BFF"/>
<path d="M94.4611 78.0205H81.6948V79.198H94.4611V78.0205Z" fill="#407BFF"/>
<path d="M106.384 78.0205H97.0723V79.198H106.384V78.0205Z" fill="#407BFF"/>
<path d="M118.34 78.0205H109.028V79.198H118.34V78.0205Z" fill="#407BFF"/>
<path opacity="0.3" d="M94.4611 78.0205H81.6948V79.198H94.4611V78.0205Z" fill="black"/>
<path opacity="0.3" d="M106.384 78.0205H97.0723V79.198H106.384V78.0205Z" fill="black"/>
<path opacity="0.3" d="M118.34 78.0205H109.028V79.198H118.34V78.0205Z" fill="black"/>
<path d="M86.3771 118.27C87.3881 118.27 88.2078 117.45 88.2078 116.439C88.2078 115.428 87.3881 114.608 86.3771 114.608C85.366 114.608 84.5464 115.428 84.5464 116.439C84.5464 117.45 85.366 118.27 86.3771 118.27Z" fill="#407BFF"/>
<path d="M116.136 115.537H92.2158V116.649H116.136V115.537Z" fill="#407BFF"/>
<path d="M86.0704 125.571C87.0815 125.571 87.9011 124.751 87.9011 123.74C87.9011 122.729 87.0815 121.909 86.0704 121.909C85.0594 121.909 84.2397 122.729 84.2397 123.74C84.2397 124.751 85.0594 125.571 86.0704 125.571Z" fill="#407BFF"/>
<path d="M116.136 122.859H92.2158V123.972H116.136V122.859Z" fill="#407BFF"/>
<path d="M86.3771 132.568C87.3881 132.568 88.2078 131.748 88.2078 130.737C88.2078 129.726 87.3881 128.906 86.3771 128.906C85.366 128.906 84.5464 129.726 84.5464 130.737C84.5464 131.748 85.366 132.568 86.3771 132.568Z" fill="#407BFF"/>
<path d="M116.136 130.181H92.2158V131.293H116.136V130.181Z" fill="#407BFF"/>
<path opacity="0.3" d="M116.136 115.537H92.2158V116.649H116.136V115.537Z" fill="black"/>
<path opacity="0.3" d="M116.136 122.859H92.2158V123.972H116.136V122.859Z" fill="black"/>
<path opacity="0.3" d="M116.136 130.181H92.2158V131.293H116.136V130.181Z" fill="black"/>
<path opacity="0.2" d="M73.0215 122.495C73.0215 121.514 76.5682 108.77 84.3712 95.3722C92.1742 81.9743 101.821 91.1241 111.185 76.419C120.548 61.7138 121.601 37.1689 121.601 37.1689H110.698C110.698 37.1689 108.631 64.6551 98.7002 68.2496C88.7695 71.8441 73.0219 93.7381 73.0219 93.7381L73.0215 122.495Z" fill="white"/>
<path opacity="0.2" d="M79.8882 147.373H86.2722C86.2722 147.373 121.654 96.9031 126.903 87.8284V78.0449C122.079 89.3885 79.8882 147.373 79.8882 147.373Z" fill="white"/>
<path d="M124.817 75.4419C128.067 81.9622 135.665 84.7737 141.786 81.7219L143.965 80.6358L132.193 57.0244L130.015 58.1105C123.894 61.1624 121.566 68.9221 124.817 75.4419Z" fill="#407BFF"/>
<path opacity="0.3" d="M124.817 75.4419C128.067 81.9622 135.665 84.7737 141.786 81.7219L143.965 80.6358L132.193 57.0244L130.015 58.1105C123.894 61.1624 121.566 68.9221 124.817 75.4419Z" fill="black"/>
<path d="M143.905 80.6722C150.441 77.4534 153.13 69.5459 149.911 63.0101C146.692 56.4743 138.785 53.7853 132.249 57.004C125.713 60.2228 123.024 68.1303 126.243 74.6661C129.462 81.2019 137.369 83.8909 143.905 80.6722Z" fill="#407BFF"/>
<path d="M128.627 73.5431C131.23 78.7634 137.571 80.885 142.791 78.2828C148.012 75.6802 150.134 69.3386 147.531 64.1183C144.929 58.8979 138.587 56.7759 133.367 59.3785C128.146 61.9812 126.025 68.3227 128.627 73.5431Z" fill="#407BFF"/>
<path opacity="0.3" d="M128.627 73.5431C131.23 78.7634 137.571 80.885 142.791 78.2828C148.012 75.6802 150.134 69.3386 147.531 64.1183C144.929 58.8979 138.587 56.7759 133.367 59.3785C128.146 61.9812 126.025 68.3227 128.627 73.5431Z" fill="white"/>
<path d="M141.405 71.8419C141.091 72.4571 140.605 72.941 139.946 73.2939L140.05 73.6269C140.103 73.7954 140.088 73.9635 140.003 74.1312C139.919 74.2988 139.793 74.409 139.625 74.462C139.456 74.5151 139.295 74.4971 139.141 74.4094C138.986 74.3213 138.881 74.1887 138.826 74.0116L138.734 73.7191C138.079 73.837 137.474 73.8121 136.92 73.6448C136.366 73.4779 135.924 73.2119 135.596 72.8472C135.443 72.6713 135.346 72.5167 135.304 72.3837C135.248 72.2062 135.264 72.0332 135.353 71.8639C135.441 71.6954 135.578 71.5816 135.765 71.5228C135.915 71.4755 136.062 71.4783 136.205 71.5306C136.349 71.5832 136.469 71.6721 136.567 71.797C136.757 72.0589 137.014 72.2437 137.34 72.351C137.666 72.4588 138.009 72.4951 138.368 72.46L137.528 69.5958C136.716 69.5877 136.041 69.4628 135.503 69.2225C134.965 68.9818 134.6 68.5558 134.408 67.9434C134.213 67.3225 134.262 66.7345 134.556 66.1796C134.849 65.6248 135.353 65.1817 136.067 64.85L135.98 64.5709C135.927 64.4024 135.941 64.2351 136.02 64.0687C136.099 63.9026 136.218 63.7945 136.378 63.7443C136.547 63.6912 136.713 63.71 136.878 63.7994C137.043 63.8891 137.152 64.0181 137.205 64.1866L137.288 64.4526C138.029 64.2984 138.654 64.3261 139.163 64.5366C139.673 64.7472 140.009 65.1099 140.17 65.6239C140.231 65.8194 140.22 66.0009 140.136 66.1682C140.052 66.3359 139.921 66.4477 139.744 66.5032C139.584 66.5534 139.433 66.5448 139.29 66.4775C139.147 66.4102 139.042 66.2992 138.974 66.1454C138.889 65.9675 138.728 65.8353 138.491 65.7488C138.254 65.6623 137.972 65.6366 137.641 65.6717L138.381 68.2168C140.152 68.2364 141.217 68.8227 141.579 69.9757C141.777 70.6048 141.719 71.2274 141.405 71.8419ZM136.098 67.9744C136.33 68.0919 136.666 68.169 137.107 68.2062L136.448 66.0597C136.095 66.2388 135.852 66.4489 135.718 66.6905C135.584 66.9324 135.559 67.1862 135.643 67.4526C135.715 67.6835 135.867 67.8573 136.098 67.9744ZM140.265 71.3078C140.41 71.0091 140.438 70.7178 140.349 70.4339C140.277 70.2033 140.121 70.0157 139.881 69.872C139.64 69.728 139.281 69.6387 138.803 69.6036L139.558 72.0565C139.884 71.8561 140.12 71.6069 140.265 71.3078Z" fill="#407BFF"/>
<path d="M128.11 64.8222C130.328 59.3179 136.587 56.6536 142.091 58.8711C147.595 61.0886 150.26 67.3481 148.042 72.852C149.451 67.6043 146.72 62.1306 141.68 60.1C136.176 57.8825 129.917 60.5472 127.699 66.0511C127.811 65.6337 127.949 65.2233 128.11 64.8222Z" fill="#407BFF"/>
<path opacity="0.3" d="M128.11 64.8222C130.328 59.3179 136.587 56.6536 142.091 58.8711C147.595 61.0886 150.26 67.3481 148.042 72.852C149.451 67.6043 146.72 62.1306 141.68 60.1C136.176 57.8825 129.917 60.5472 127.699 66.0511C127.811 65.6337 127.949 65.2233 128.11 64.8222Z" fill="black"/>
<path d="M37.1849 110.434C38.9369 113.948 43.032 115.464 46.3311 113.819L47.5053 113.233L41.1605 100.507L39.9863 101.092C36.6872 102.737 35.433 106.92 37.1849 110.434Z" fill="#407BFF"/>
<path opacity="0.3" d="M37.1849 110.434C38.9369 113.948 43.032 115.464 46.3311 113.819L47.5053 113.233L41.1605 100.507L39.9863 101.092C36.6872 102.737 35.433 106.92 37.1849 110.434Z" fill="black"/>
<path d="M51.0758 109.126C49.8298 112.85 45.8008 114.858 42.0769 113.612C38.3531 112.366 36.3445 108.337 37.5906 104.614C38.8366 100.89 42.8656 98.8812 46.5894 100.127C50.3132 101.373 52.3218 105.402 51.0758 109.126Z" fill="#407BFF"/>
<path d="M39.2384 109.41C40.6412 112.223 44.0594 113.367 46.8729 111.964C49.6865 110.562 50.8301 107.143 49.4274 104.33C48.0247 101.516 44.6065 100.372 41.7929 101.775C38.9794 103.178 37.8357 106.596 39.2384 109.41Z" fill="#407BFF"/>
<path opacity="0.3" d="M39.2384 109.41C40.6412 112.223 44.0594 113.367 46.8729 111.964C49.6865 110.562 50.8301 107.143 49.4274 104.33C48.0247 101.516 44.6065 100.372 41.7929 101.775C38.9794 103.178 37.8357 106.596 39.2384 109.41Z" fill="white"/>
<path d="M46.1257 108.493C45.9564 108.825 45.6945 109.086 45.3391 109.276L45.3954 109.455C45.424 109.546 45.4154 109.637 45.3701 109.727C45.3248 109.817 45.2571 109.877 45.1661 109.905C45.0751 109.934 44.9882 109.924 44.905 109.877C44.8217 109.829 44.765 109.758 44.7353 109.662L44.6859 109.504C44.333 109.568 44.007 109.554 43.7083 109.464C43.4097 109.374 43.1718 109.231 42.9947 109.034C42.9123 108.94 42.8597 108.856 42.8372 108.784C42.807 108.688 42.816 108.595 42.8633 108.504C42.9107 108.413 42.9849 108.352 43.0853 108.32C43.1665 108.295 43.2456 108.296 43.3228 108.324C43.3999 108.352 43.4652 108.401 43.5178 108.468C43.6198 108.609 43.7589 108.709 43.9343 108.767C44.1102 108.824 44.2946 108.844 44.4884 108.825L44.0355 107.281C43.5977 107.277 43.2342 107.21 42.9441 107.08C42.654 106.951 42.4574 106.721 42.3538 106.391C42.2489 106.056 42.2754 105.739 42.4337 105.44C42.592 105.141 42.8633 104.902 43.2485 104.723L43.2012 104.573C43.1726 104.482 43.18 104.392 43.2228 104.302C43.2652 104.212 43.3297 104.154 43.4158 104.127C43.5068 104.099 43.5965 104.109 43.6851 104.157C43.774 104.205 43.8323 104.275 43.8609 104.366L43.9058 104.509C44.3052 104.426 44.6422 104.441 44.9164 104.554C45.191 104.668 45.3721 104.863 45.459 105.14C45.4921 105.245 45.486 105.343 45.4407 105.434C45.3954 105.524 45.3252 105.584 45.2293 105.614C45.1433 105.641 45.0617 105.637 44.9845 105.6C44.9074 105.564 44.8507 105.505 44.814 105.421C44.7683 105.325 44.6814 105.254 44.5541 105.208C44.4264 105.161 44.2738 105.147 44.0959 105.166L44.4949 106.538C45.4493 106.548 46.0237 106.864 46.2187 107.486C46.326 107.826 46.2946 108.162 46.1257 108.493ZM43.2656 106.409C43.3905 106.472 43.572 106.514 43.8095 106.534L43.4541 105.376C43.264 105.473 43.1326 105.586 43.0608 105.716C42.9886 105.847 42.9751 105.984 43.02 106.127C43.0588 106.252 43.1404 106.346 43.2656 106.409ZM45.5113 108.206C45.5896 108.044 45.6047 107.888 45.5566 107.734C45.5174 107.61 45.4333 107.509 45.304 107.432C45.1747 107.354 44.9809 107.306 44.723 107.287L45.1298 108.609C45.306 108.501 45.4329 108.367 45.5113 108.206Z" fill="#407BFF"/>
<path d="M38.9598 104.71C40.1549 101.743 43.529 100.307 46.4956 101.502C49.4622 102.697 50.8983 106.071 49.7033 109.038C50.4626 106.209 48.9909 103.259 46.274 102.165C43.3075 100.97 39.9337 102.405 38.7383 105.372C38.7987 105.147 38.8729 104.926 38.9598 104.71Z" fill="#407BFF"/>
<path opacity="0.3" d="M38.9598 104.71C40.1549 101.743 43.529 100.307 46.4956 101.502C49.4622 102.697 50.8983 106.071 49.7033 109.038C50.4626 106.209 48.9909 103.259 46.274 102.165C43.3075 100.97 39.9337 102.405 38.7383 105.372C38.7987 105.147 38.8729 104.926 38.9598 104.71Z" fill="black"/>
<path d="M121.011 154.798C121.011 154.798 124.865 142.022 139.404 141.471C153.943 140.921 165.507 144.776 165.948 157.662C166.388 170.548 158.899 173.082 158.899 173.082L158.678 179.8H151.299V175.835C151.299 175.835 141.606 176.276 137.972 175.174V180.901H130.042L129.932 173.191C129.932 173.191 124.095 170.328 122.222 165.371H118.147C116.749 161.267 116.272 157.244 117.511 154.718L121.011 154.798Z" fill="#407BFF"/>
<path d="M129.39 147.283C129.113 144.971 128.837 142.659 128.56 140.347C128.532 140.113 128.507 139.862 128.62 139.654C128.815 139.296 129.307 139.248 129.711 139.298C131.434 139.51 132.922 140.68 133.919 142.1C134.917 143.52 135.497 145.184 136.066 146.824" fill="#407BFF"/>
<path d="M128.456 144.896C127.459 143.475 125.971 142.306 124.249 142.094C123.845 142.044 123.352 142.092 123.158 142.45C123.045 142.657 123.07 142.909 123.098 143.143C123.374 145.455 123.651 147.767 123.927 150.079L130.603 149.62C130.034 147.979 129.454 146.316 128.456 144.896Z" fill="#407BFF"/>
<path d="M141.488 144.693C144.429 144.395 147.387 144.634 150.239 145.412C150.748 145.551 150.965 144.762 150.457 144.624C147.539 143.828 144.497 143.57 141.488 143.876C140.969 143.928 140.964 144.747 141.488 144.693Z" fill="#263238"/>
<path d="M127.737 153.435C127.784 153.79 127.805 154.148 127.797 154.506C127.793 154.681 127.782 154.857 127.765 155.031C127.761 155.073 127.756 155.115 127.751 155.157C127.741 155.252 127.757 155.129 127.744 155.215C127.73 155.313 127.713 155.41 127.695 155.506C127.657 155.716 127.753 155.958 127.981 156.009C128.182 156.055 128.442 155.949 128.484 155.724C128.624 154.967 128.656 154.198 128.554 153.435C128.539 153.321 128.519 153.229 128.435 153.145C128.364 153.074 128.247 153.021 128.145 153.026C127.948 153.034 127.706 153.207 127.737 153.435Z" fill="#263238"/>
<path d="M166.138 157.502C166.859 156.302 168.593 156.377 169.545 157.236C170.573 158.164 171.233 160.168 170.619 161.479C170.286 162.189 169.36 162.584 168.817 161.862C168.295 161.167 168.577 160.201 168.846 159.462C169.333 158.12 170.251 156.812 171.597 156.23C172.94 155.649 174.737 155.978 175.521 157.289C175.79 157.74 176.498 157.329 176.227 156.876C175.299 155.323 173.249 154.783 171.584 155.36C169.67 156.024 168.408 157.897 167.885 159.779C167.618 160.739 167.609 161.867 168.382 162.604C169.067 163.257 170.069 163.187 170.77 162.599C172.326 161.294 171.619 158.454 170.522 157.086C169.266 155.521 166.57 155.195 165.432 157.089C165.16 157.541 165.868 157.953 166.138 157.502Z" fill="#407BFF"/>
<path d="M117.49 155.299C118.959 158.166 119.345 161.502 118.58 164.63C118.455 165.141 119.244 165.359 119.369 164.847C120.188 161.499 119.767 157.953 118.197 154.886C117.957 154.417 117.251 154.831 117.49 155.299Z" fill="#263238"/>
<path d="M150.256 141.048C154.407 141.37 158.42 142.935 161.686 145.517C161.992 145.758 162.428 145.328 162.119 145.084C158.715 142.393 154.584 140.771 150.256 140.436C149.863 140.405 149.865 141.017 150.256 141.048Z" fill="#407BFF"/>
<path d="M162.867 146.96C163.225 147.344 163.583 147.728 163.94 148.112C164.05 148.23 164.264 148.231 164.373 148.112C164.489 147.986 164.49 147.805 164.373 147.679C164.015 147.295 163.657 146.911 163.299 146.527C163.19 146.41 162.976 146.408 162.867 146.527C162.751 146.653 162.749 146.835 162.867 146.96Z" fill="#407BFF"/>
<path d="M47.2069 43.401C42.9567 41.3475 37.8465 43.128 35.7931 47.3782C33.7396 51.6283 35.5201 56.7385 39.7707 58.7924C43.0518 60.3775 46.8397 59.6704 49.344 57.3134L51.9013 57.5358L51.1163 54.9396C51.1376 54.8972 51.1637 54.8585 51.1845 54.8152C53.2379 50.5647 51.457 45.4545 47.2069 43.401Z" fill="#407BFF"/>
<path d="M42.9683 41.4412C45.7194 41.0507 48.6374 42.1499 50.4469 44.2588" stroke="#407BFF" stroke-miterlimit="10" stroke-linecap="round" stroke-linejoin="round"/>
<path d="M51.2422 45.2549C51.5413 45.5552 51.7775 45.9179 51.9309 46.3128" stroke="#407BFF" stroke-miterlimit="10" stroke-linecap="round" stroke-linejoin="round"/>
<path d="M43.4992 55.3541L39.1548 52.1191L40.2837 50.603L43.1968 52.7723L47.1997 47.9971L48.6481 49.2113L43.4992 55.3541Z" fill="white"/>
<path d="M61.7009 164.143L57.0713 164.882L60.8604 175.618L65.4957 174.878L61.7009 164.143Z" fill="#F2B269"/>
<path d="M59.1587 173.922L60.7968 173.272C61.1673 173.124 61.5846 173.176 61.9225 173.388C63.379 174.303 63.8956 173.534 64.4415 171.913C65.0645 171.578 65.5378 172.257 65.6712 172.438L68.6639 176.406C68.9176 176.735 68.8564 177.209 68.5268 177.463C68.468 177.508 68.4031 177.545 68.3338 177.571C66.3444 178.36 65.4031 178.734 62.9274 179.717L55.3553 182.722C53.2912 183.542 52.0374 181.631 52.8114 181.101C56.2994 178.739 58.5601 176.539 59.3007 174.958C59.4426 174.676 59.1599 174.62 59.1587 173.922Z" fill="#263238"/>
<path d="M57.3187 176.409C57.8307 176.192 58.3191 175.921 58.7749 175.602C58.8152 175.566 58.8193 175.504 58.7834 175.464C58.7643 175.442 58.7361 175.43 58.7067 175.431C58.4321 175.41 56.0041 175.266 55.6349 175.833C55.5635 175.934 55.5561 176.067 55.6157 176.175C55.7026 176.386 55.8846 176.544 56.1061 176.599C56.5207 176.666 56.9454 176.6 57.3187 176.409ZM58.4052 175.606C57.8454 175.958 56.7818 176.554 56.1788 176.391C56.0205 176.344 55.8899 176.231 55.8205 176.081C55.792 176.036 55.7936 175.979 55.8254 175.937C56.0302 175.626 57.4064 175.569 58.4052 175.606Z" fill="#407BFF"/>
<path d="M58.7554 175.615C58.7786 175.613 58.8011 175.604 58.8194 175.59C58.8374 175.555 58.8329 175.513 58.808 175.483C58.7741 175.398 57.4926 173.573 56.4204 174.147C56.1572 174.294 56.1299 174.46 56.1642 174.577C56.307 175.139 57.9969 175.638 58.7138 175.651L58.7554 175.615ZM56.5967 174.262C57.3078 173.98 58.1866 174.993 58.5122 175.408C57.7036 175.32 56.4347 174.853 56.3641 174.503C56.3535 174.476 56.3237 174.401 56.5236 174.297L56.5967 174.262Z" fill="#407BFF"/>
<path d="M60.2699 176.122C60.2405 176.122 60.212 176.113 60.1867 176.095C59.724 175.756 59.1153 175.634 58.5563 175.774C58.4808 175.793 58.4045 175.746 58.3858 175.671C58.3678 175.596 58.4131 175.519 58.4894 175.501C59.1271 175.343 59.8231 175.481 60.3527 175.868C60.4156 175.914 60.4294 176.002 60.3837 176.065C60.3564 176.102 60.3131 176.122 60.2699 176.122Z" fill="#407BFF"/>
<path d="M59.556 177.292C59.527 177.292 59.4981 177.283 59.4728 177.265C59.0101 176.926 58.401 176.805 57.8424 176.945C57.7665 176.962 57.6906 176.917 57.6719 176.841C57.6539 176.766 57.6996 176.689 57.7755 176.671C58.4132 176.512 59.1097 176.651 59.6388 177.038C59.7017 177.084 59.7151 177.172 59.6698 177.235C59.6421 177.272 59.5993 177.292 59.556 177.292Z" fill="#407BFF"/>
<path d="M58.5448 178.439C58.5158 178.439 58.4869 178.43 58.4616 178.412C57.9981 178.073 57.3902 177.953 56.8312 178.092C56.7557 178.11 56.6794 178.064 56.6607 177.989C56.6427 177.913 56.688 177.837 56.7643 177.818C57.4024 177.66 58.0985 177.798 58.6276 178.185C58.6905 178.231 58.7043 178.319 58.6586 178.382C58.6313 178.419 58.5885 178.439 58.5448 178.439Z" fill="#407BFF"/>
<path opacity="0.3" d="M68.6641 176.406L65.6714 172.437C65.5384 172.257 65.0672 171.582 64.447 171.91L61.7012 164.143L57.072 164.883L60.1263 173.538L59.1589 173.922C59.1601 174.619 59.4429 174.676 59.3013 174.957C59.2287 175.112 59.1373 175.275 59.0357 175.442C58.9549 175.441 58.8758 175.452 58.7954 175.46C58.6665 175.247 57.4494 173.597 56.4216 174.147C56.1585 174.295 56.1311 174.46 56.1654 174.577C56.2474 174.9 56.8394 175.201 57.4645 175.403C56.7036 175.42 55.8439 175.514 55.6362 175.833C55.5648 175.934 55.5575 176.067 55.6171 176.175C55.704 176.386 55.8859 176.544 56.1075 176.599C56.5216 176.667 56.9463 176.6 57.3197 176.409C57.7362 176.232 58.1316 176.011 58.5118 175.767C58.5277 175.769 58.5416 175.778 58.5579 175.774C58.6526 175.751 58.7497 175.745 58.846 175.736C58.6534 176.018 58.427 176.312 58.1601 176.62C58.0312 176.629 57.9027 176.639 57.7766 176.671C57.7007 176.689 57.655 176.766 57.673 176.841C57.6917 176.917 57.7676 176.962 57.8435 176.945C57.8529 176.942 57.8627 176.943 57.8725 176.941C57.6212 177.213 57.3429 177.494 57.0389 177.782C56.9476 177.793 56.8553 177.795 56.766 177.818C56.6901 177.837 56.6444 177.913 56.6624 177.988C56.6713 178.025 56.695 178.055 56.7252 178.073C55.6828 179.023 54.3714 180.046 52.8129 181.102C52.0389 181.632 53.2927 183.542 55.3568 182.722L62.9288 179.717C65.4046 178.734 66.3458 178.361 68.3352 177.571C68.4046 177.545 68.4695 177.508 68.5282 177.463C68.8567 177.209 68.9183 176.736 68.6641 176.406ZM56.3645 174.504C56.3539 174.477 56.3241 174.402 56.524 174.298L56.5967 174.263C57.3078 173.981 58.1866 174.994 58.5122 175.409C57.7044 175.321 56.4351 174.853 56.3645 174.504ZM56.1789 176.391C56.0206 176.344 55.89 176.231 55.8207 176.081C55.7921 176.037 55.7937 175.979 55.8251 175.937C56.0214 175.64 57.2886 175.576 58.2731 175.603C58.3099 175.609 58.3462 175.616 58.3813 175.621C57.817 175.974 56.7746 176.552 56.1789 176.391Z" fill="black"/>
<path d="M67.9517 167.34L63.3091 166.688L63.7775 178.063L68.4254 178.717L67.9517 167.34Z" fill="#F2B269"/>
<path d="M62.6491 175.941L64.4059 175.801C64.8033 175.769 65.1873 175.941 65.4476 176.243C66.5712 177.545 67.2909 176.961 68.2889 175.573C68.9829 175.435 69.2359 176.224 69.3101 176.436L71.0049 181.108C71.151 181.498 70.9531 181.932 70.5635 182.078C70.4941 182.104 70.4215 182.12 70.3477 182.125C68.2142 182.295 67.2048 182.376 64.5496 182.588L56.4287 183.237C54.2149 183.414 53.578 181.219 54.4732 180.94C58.5014 179.706 61.3084 178.268 62.4806 176.974C62.6993 176.745 62.4455 176.608 62.6491 175.941Z" fill="#263238"/>
<path d="M60.1601 177.778C60.7134 177.72 61.2597 177.605 61.7893 177.434C61.8382 177.412 61.8603 177.354 61.8382 177.305C61.8264 177.278 61.8027 177.258 61.7746 177.251C61.5184 177.15 59.2397 176.299 58.7203 176.733C58.6224 176.808 58.5763 176.933 58.6016 177.054C58.6224 177.281 58.7501 177.485 58.9455 177.604C59.3217 177.789 59.7472 177.85 60.1601 177.778ZM61.4347 177.329C60.7962 177.502 59.6048 177.759 59.0761 177.426C58.9386 177.334 58.8472 177.188 58.8247 177.025C58.8105 176.974 58.8288 176.919 58.8717 176.888C59.1581 176.651 60.4906 177.001 61.4347 177.329Z" fill="#407BFF"/>
<path d="M61.7665 177.442C61.7894 177.447 61.8134 177.445 61.8355 177.436C61.8628 177.408 61.871 177.367 61.8559 177.331C61.8485 177.239 61.1594 175.118 59.9664 175.352C59.6714 175.416 59.5968 175.566 59.5951 175.688C59.5662 176.267 61.035 177.241 61.7168 177.463L61.7665 177.442ZM60.1003 175.514C60.8628 175.454 61.4054 176.68 61.5948 177.172C60.8477 176.851 59.7722 176.031 59.8073 175.676C59.8049 175.647 59.7987 175.567 60.0203 175.526L60.1003 175.514Z" fill="#407BFF"/>
<path d="M61.5381 177.394C62.1497 177.428 62.7401 177.744 63.1068 178.235" stroke="#407BFF" stroke-width="0.5" stroke-miterlimit="10" stroke-linecap="round" stroke-linejoin="round"/>
<path d="M60.5117 178.304C61.1233 178.338 61.7137 178.655 62.0805 179.145" stroke="#407BFF" stroke-width="0.5" stroke-miterlimit="10" stroke-linecap="round" stroke-linejoin="round"/>
<path d="M59.2085 179.103C59.8201 179.137 60.4105 179.453 60.7773 179.944" stroke="#407BFF" stroke-width="0.5" stroke-miterlimit="10" stroke-linecap="round" stroke-linejoin="round"/>
<path opacity="0.2" d="M60.2529 96.6953C60.2529 96.6953 62.8099 97.9883 67.4097 97.5607C74.8899 96.8655 80.5758 94.1543 80.5758 94.1543" stroke="black" stroke-width="0.5" stroke-miterlimit="10" stroke-linecap="round" stroke-linejoin="round"/>
<path d="M60.7333 97.5605C60.7333 97.5605 46.8703 125.084 46.1783 135.307C45.4158 146.518 58.8084 172.64 58.8084 172.64L65.981 169.295C65.981 169.295 56.659 144.555 57.3229 135.961C59.4408 123.672 74.3589 99.5981 74.3589 99.5981L60.7333 97.5605Z" fill="#407BFF"/>
<path opacity="0.2" d="M67.9399 104.083C64.589 105.604 63.4821 114.897 63.6277 119.109C65.9811 114.087 68.5225 109.174 70.556 105.418C70.1027 105.146 68.4001 103.824 67.9399 104.083Z" fill="black"/>
<path d="M60.6376 95.7012L80.7451 96.3552C80.7451 96.3552 80.8756 102.525 79.3526 107.119L59.4062 100.615L60.6376 95.7012Z" fill="#407BFF"/>
<path d="M67.4686 97.1504C67.4686 97.1504 63.0161 127.964 62.87 138.304C62.7052 149.638 62.797 172.639 62.797 172.639H69.7983C69.7983 172.639 72.6975 151.384 73.8366 140.399C75.1308 127.884 80.19 103.12 80.19 103.12L67.4686 97.1504Z" fill="#407BFF"/>
<path opacity="0.2" d="M62.7718 160.125L62.7906 170.783L61.5947 171.34L62.0802 158L62.7718 160.125Z" fill="black"/>
<path opacity="0.2" d="M73.5454 100.949C73.8082 101.67 74.383 102.27 75.0913 102.564C75.7996 102.858 76.6307 102.841 77.3263 102.519" stroke="black" stroke-width="0.5" stroke-miterlimit="10" stroke-linecap="round" stroke-linejoin="round"/>
<path d="M60.7759 82.1764C60.6723 82.4077 60.5592 82.639 60.4417 82.8651C59.1096 85.4098 57.8391 87.1132 56.6763 88.0911C55.0806 89.4212 53.6734 89.3845 52.5722 88.249C50.6661 86.2825 52.4356 81.3404 52.5253 81.3404C52.6147 81.3404 54.7138 81.8663 54.7138 81.8663L54.8831 81.3404C55.1324 80.557 55.6408 79.027 56.2952 77.3497C57.5519 74.1637 59.3732 70.4358 61.0676 70.2571C61.0676 70.215 63.4067 76.3615 60.7759 82.1764Z" fill="#263238"/>
<path opacity="0.2" d="M58.8761 81.4392L58.371 86.2332L57.4551 87.3418L57.8757 81.1602L58.8761 81.4392Z" fill="black"/>
<path opacity="0.2" d="M55.7658 85.9237C55.7858 84.7295 55.6899 83.5365 55.4786 82.3606L54.6973 81.8898C54.9466 81.1885 55.3252 79.769 55.9792 78.2676C58.2338 81.3459 55.8694 85.7589 55.7658 85.9237Z" fill="black"/>
<path d="M79.8628 85.3279C80.0557 90.1709 80.8089 95.4814 80.7477 96.6956C74.3466 100.522 62.5264 101.154 59.7798 99.0224C59.6986 98.4949 60.4044 96.902 59.934 96.6956C55.455 94.7254 60.7471 70.3147 61.067 70.2205C62.7904 69.8247 64.5391 69.5477 66.3008 69.3922C68.8802 69.2625 71.4641 69.2625 74.043 69.3922C76.0937 69.5012 78.1365 69.7276 80.1614 70.0699C79.3736 73.6163 78.9321 77.2303 78.8436 80.8619C78.7453 83.0741 79.7877 83.4025 79.8628 85.3279Z" fill="#263238"/>
<path d="M54.7513 76.3955C54.0243 76.5277 53.3086 76.715 52.6097 76.9557C52.431 77.0781 52.0402 79.3327 52.0969 79.7799C52.1299 80.0104 53.123 82.0202 53.123 82.0202C53.5277 82.2413 54.757 82.1981 54.757 82.1981L54.7513 76.3955Z" fill="#F2B269"/>
<path d="M70.5842 73.9567C70.5842 73.9567 75.978 71.3353 77.0417 69.3018C78.1053 67.2688 75.7426 65.2165 71.7891 65.2022C67.8356 65.188 63.8208 66.7788 64.3055 69.8196C64.7902 72.86 66.5977 73.933 66.5977 73.933C66.5977 73.933 67.765 72.512 70.5842 73.9567Z" fill="#263238"/>
<path d="M72.5453 69.5798C70.9684 70.7847 69.2756 72.9075 68.2687 72.8744C67.4135 72.8443 66.9651 71.2637 66.5771 70.5011C67.6595 68.8536 67.1626 68.874 66.2544 67.4101L70.1985 61.7197C70.429 64.3746 70.2251 68.3701 72.5453 69.5798Z" fill="#F2B269"/>
<path opacity="0.2" d="M68.598 64.0401L66.2446 67.4101C66.5111 67.8275 66.8856 68.196 67.07 68.6554C68.1806 68.1519 69.2051 66.8781 69.3087 65.5554C69.3936 64.7177 68.9227 64.0352 68.598 64.0401Z" fill="black"/>
<path d="M59.0389 78.9314C59.0989 79.1244 59.0035 79.3337 58.8264 79.3989C58.8097 79.4051 58.7925 79.4095 58.7754 79.4128L55.0385 80.2068C54.8312 80.2333 54.6354 80.0991 54.5677 79.8841L52.2661 72.057C52.2082 71.8391 52.3212 71.6114 52.5203 71.5445L56.2572 70.7506C56.4857 70.7318 56.6962 70.8864 56.7656 71.1247L59.0389 78.9314Z" fill="#263238"/>
<path opacity="0.2" d="M59.0389 78.9314C59.0989 79.1244 59.0035 79.3337 58.8264 79.3989C58.8097 79.4051 58.7925 79.4095 58.7754 79.4128L55.0385 80.2068C54.8312 80.2333 54.6354 80.0991 54.5677 79.8841L52.2661 72.057C52.2082 71.8391 52.3212 71.6114 52.5203 71.5445L56.2572 70.7506C56.4857 70.7318 56.6962 70.8864 56.7656 71.1247L59.0389 78.9314Z" fill="white"/>
<path opacity="0.5" d="M56.2066 71.2171C56.1458 71.0086 55.9757 70.8716 55.7807 70.8516L52.5203 71.5443C52.3212 71.6108 52.2082 71.8389 52.2661 72.0568L54.5677 79.8839C54.6244 80.0646 54.7737 80.1821 54.9426 80.2009L58.216 79.5052C58.2331 79.502 58.2503 79.4975 58.267 79.491C58.4445 79.4257 58.5396 79.2164 58.4796 79.0234L56.2066 71.2171Z" fill="black"/>
<path d="M61.2376 78.81L58.0034 76.6904L58.063 81.513C58.063 81.513 61.2613 82.8745 61.8239 81.1646L61.2376 78.81Z" fill="#F2B269"/>
<path d="M54.629 79.5244L54.6449 79.7953C54.7024 80.7892 55.5356 81.5599 56.5311 81.5403L58.1659 81.5407L58.0035 76.6904L56.3854 77.1115C55.2993 77.3938 54.5641 78.404 54.629 79.5244Z" fill="#F2B269"/>
<path d="M61.0671 78.6973C62.0659 79.1705 66.254 82.3631 66.254 82.3631L64.148 84.8817L60.5796 81.3162L61.0671 78.6973Z" fill="#F2B269"/>
<path opacity="0.2" d="M62.7719 84.1798C62.7719 84.1798 69.6532 93.86 74.3591 91.8326C79.065 89.8053 79.863 85.3271 79.863 85.3271L73.8336 89.0958L62.7715 83.3291V84.1798H62.7719Z" fill="black"/>
<path d="M63.7365 79.2419C63.7365 79.2419 72.2082 84.2362 73.1213 84.5581C74.0344 84.88 75.7818 77.319 76.4175 75.2989C77.0528 73.2789 78.6799 70.274 80.1201 70.0688C80.1201 70.0688 84.7534 69.877 82.7342 77.5572C80.715 85.2374 77.4657 90.6732 73.8181 90.8009C70.1706 90.9286 62.3574 83.5091 62.3574 83.5091L63.7365 79.2419Z" fill="#263238"/>
<path d="M52.978 76.848C53.6639 76.5416 54.3542 76.2335 55.0845 76.0577C55.1922 76.032 55.304 76.0087 55.4126 76.0295C55.5211 76.0503 55.6264 76.1262 55.6492 76.2343C55.6782 76.3727 55.5709 76.4987 55.4689 76.5962C54.9487 77.0944 54.3554 77.5163 53.7141 77.8439" fill="#F2B269"/>
<path opacity="0.2" d="M62.3574 83.5098L63.7365 79.2425C63.7365 79.2425 72.2082 84.2368 73.1213 84.5587C74.0344 84.8807 76.2812 77.8843 76.9165 75.8643" stroke="black" stroke-width="0.5" stroke-miterlimit="10" stroke-linecap="round" stroke-linejoin="round"/>
<path opacity="0.2" d="M76.8461 69.6143C76.8461 69.6143 70.3924 74.7143 68.7437 74.8477C68.7437 74.8477 75.0991 73.4727 76.8461 69.6143Z" fill="black"/>
<path d="M67.4308 74.5472C67.226 73.9458 66.7662 72.9376 66.1889 72.672C66.0412 72.6039 65.8808 72.5504 65.7188 72.5635C65.5569 72.5761 65.3928 72.6679 65.3333 72.8193C65.2403 73.0555 65.4226 73.3032 65.5928 73.4917C65.8241 73.7479 66.0477 73.9764 66.3692 74.1017C66.6887 74.2265 67.1073 74.5105 67.4308 74.5472Z" stroke="white" stroke-width="0.25" stroke-miterlimit="10" stroke-linecap="round" stroke-linejoin="round"/>
<path d="M67.5093 74.5456C68.1445 74.5587 69.249 74.4718 69.6962 74.0205C69.8104 73.9051 69.9157 73.7729 69.9589 73.6162C70.0022 73.4595 69.9724 73.2743 69.8504 73.1666C69.6603 72.9985 69.3649 73.085 69.1294 73.1805C68.8096 73.3102 68.5183 73.442 68.2906 73.7015C68.0646 73.9581 67.6545 74.2543 67.5093 74.5456Z" stroke="white" stroke-width="0.25" stroke-miterlimit="10" stroke-linecap="round" stroke-linejoin="round"/>
<path d="M67.4515 74.6455C67.0276 76.446 66.8333 78.3004 66.8746 80.1494" stroke="white" stroke-width="0.25" stroke-miterlimit="10" stroke-linecap="round" stroke-linejoin="round"/>
<path d="M67.57 74.5469C67.3836 76.4098 68.0041 78.582 68.7785 80.2866" stroke="white" stroke-width="0.25" stroke-miterlimit="10" stroke-linecap="round" stroke-linejoin="round"/>
<path opacity="0.2" d="M60.1033 89.4238C60.1706 89.4463 66.0813 89.614 66.0813 89.614C66.0813 89.614 69.4493 92.6421 70.9777 92.9392L71.3175 95.7013C71.3175 95.7013 66.2543 97.9388 61.1273 96.2085C57.3525 94.9347 60.1033 89.4238 60.1033 89.4238Z" fill="black"/>
<path d="M54.8376 72.6019C54.8992 72.8458 54.7944 73.0829 54.6034 73.1314C54.4125 73.1796 54.2077 73.0209 54.1461 72.7765C54.0845 72.5321 54.1893 72.295 54.3803 72.2469C54.5712 72.1987 54.776 72.3575 54.8376 72.6019Z" fill="white"/>
<path opacity="0.2" d="M73.5444 85.0137C73.5444 85.0137 74.3245 87.9472 74.7823 87.5053C75.2401 87.0635 74.5771 86.0545 74.5771 86.0545C74.5771 86.0545 76.6766 86.9929 76.0687 86.2821C75.4608 85.5714 73.5444 85.0137 73.5444 85.0137Z" fill="black"/>
<path d="M61.8903 56.7033C63.5713 57.3676 63.28 59.1942 60.5558 62.5569C58.8303 61.115 57.8577 57.7833 58.7296 56.7005C59.6011 55.6172 60.4236 56.1272 61.8903 56.7033Z" fill="#263238"/>
<path d="M68.5058 55.842C66.8396 53.6514 63.7131 53.2259 61.5225 54.8921C58.5041 57.1949 59.478 62.4769 61.1035 65.3867C62.9134 68.6262 67.6592 69.0477 69.5479 65.6544C70.8082 63.3957 70.1803 61.3696 69.4181 57.8428C69.2668 57.1162 68.9551 56.4328 68.5058 55.842Z" fill="#F2B269"/>
<path d="M64.668 60.7345C64.7562 61.0997 64.5868 61.4412 64.3392 61.4824C64.0915 61.5236 63.848 61.2511 63.7831 60.8802C63.7182 60.5093 63.87 60.1719 64.1123 60.1319C64.3539 60.0919 64.6019 60.3575 64.668 60.7345Z" fill="#263238"/>
<path d="M61.4057 61.4223C61.4939 61.7878 61.3188 62.1305 61.0765 62.1705C60.8345 62.2105 60.5848 61.9392 60.5204 61.5683C60.4555 61.1974 60.6077 60.86 60.8496 60.82C61.0916 60.7805 61.3449 61.0689 61.4057 61.4223Z" fill="#263238"/>
<path d="M59.7515 59.6138C59.8123 59.635 59.8796 59.6228 59.9286 59.5808C60.2497 59.2829 60.6924 59.154 61.1232 59.2327C61.2142 59.258 61.3085 59.205 61.3342 59.1136C61.3595 59.0222 61.306 58.928 61.215 58.9027H61.2142C60.672 58.7888 60.1085 58.9451 59.7022 59.3217C59.6295 59.3821 59.6197 59.4902 59.6805 59.5628C59.6814 59.564 59.6822 59.5649 59.6834 59.5657C59.703 59.5853 59.7262 59.6016 59.7515 59.6138Z" fill="#263238"/>
<path d="M64.8967 58.8406C64.931 58.8336 64.962 58.8165 64.9856 58.7912C65.0354 58.7108 65.0109 58.6051 64.9306 58.5554C64.9293 58.5545 64.9285 58.5541 64.9273 58.5533C64.4573 58.2567 63.8722 58.2077 63.3594 58.4215C63.2745 58.4632 63.239 58.5656 63.2806 58.6504C63.3239 58.7337 63.425 58.7688 63.5099 58.7296C63.9195 58.5725 64.3798 58.6186 64.7502 58.8536C64.7988 58.8707 64.8522 58.8658 64.8967 58.8406Z" fill="#263238"/>
<path d="M67.2727 55.1024C65.7488 56.0718 68.9373 60.3088 70.2662 64.2734C73.3657 60.9441 71.4412 55.4002 70.3661 54.5038C69.2915 53.607 68.6154 54.2607 67.2727 55.1024Z" fill="#263238"/>
<path d="M72.2081 60.0883C72.1391 61.0781 71.6801 62.0002 70.9319 62.6518C69.9355 63.5078 68.8825 62.7493 68.6915 61.5184C68.5324 60.4229 68.8396 58.6265 70.0706 58.2556C71.3019 57.8855 72.2774 58.8721 72.2081 60.0883Z" fill="#F2B269"/>
<path opacity="0.1" d="M69.5766 61.445C69.4264 60.791 69.5823 60.0733 69.9903 59.5404C70.1637 59.314 70.4403 59.1051 70.712 59.192" stroke="black" stroke-width="0.5" stroke-miterlimit="10"/>
<path d="M64.0221 64.0852C64.7153 63.7396 65.3268 63.25 65.8164 62.6494C65.9021 62.7518 65.9719 62.8661 66.0241 62.9889C66.1233 63.2043 66.1681 63.4413 66.1543 63.678C66.1261 64.1627 65.8279 64.7408 64.8042 65.2598C64.7304 65.3022 64.6545 65.3406 64.5769 65.3744C64.2967 64.986 63.9886 64.618 63.6553 64.2737C63.6553 64.2745 63.7964 64.2092 64.0221 64.0852Z" fill="#263238"/>
<path d="M65.7983 62.6533C65.884 62.7557 65.9537 62.87 66.006 62.9928C65.855 63.4379 65.245 63.9124 64.285 64.4098L64.0039 64.0891C64.6971 63.7431 65.3087 63.2539 65.7983 62.6533Z" fill="white"/>
<path d="M65.1314 64.48C65.4223 64.1548 65.7687 63.8835 66.1543 63.6787C66.1261 64.1634 65.8279 64.7416 64.8042 65.2605C64.8295 64.9725 64.9437 64.6995 65.1314 64.48Z" fill="#FF3636"/>
<path d="M62.2386 60.6533C62.0248 61.6835 61.6694 62.6795 61.1831 63.6125C61.6756 63.8529 62.2492 63.8631 62.7502 63.6407L62.2386 60.6533Z" fill="#DE842C"/>
<path d="M69.4202 55.3344C69.4202 55.3344 69.8245 53.9742 67.2692 52.5482C64.7139 51.1222 60.4169 52.0304 57.5621 53.7861C54.7073 55.5417 57.9415 58.0595 59.279 58.1774L58.9248 57.7065C60.3581 57.8391 61.8053 57.6784 63.1668 57.2357L62.3284 56.9297C62.3284 56.9297 67.6883 56.252 69.4202 55.3344Z" fill="#263238"/>
</svg>
